<svg xmlns="http://www.w3.org/2000/svg" data-name="Layer 1" width="647.06281" height="526.50098" viewBox="0 0 647.06281 526.50098" xmlns:xlink="http://www.w3.org/1999/xlink"><path d="M649.16553,690.75049a13.80769,13.80769,0,0,1-13.79321,13.79322H306.64252a13.80769,13.80769,0,0,1-13.79322-13.79322V290.08691a13.80769,13.80769,0,0,1,13.79322-13.79321H635.37232a13.80769,13.80769,0,0,1,13.79321,13.79321Z" transform="translate(-276.46859 -186.74951)" fill="#f2f2f2"/><path d="M649.16553,690.75049a13.80769,13.80769,0,0,1-13.79321,13.79322H306.64252a13.80769,0,0,1-13.79322-13.79322V290.08691a13.80769,13.80769,0,0,1,13.79322-13.79321H635.37232a13.80769,13.80769,0,0,1,13.79321,13.79321Z" transform="translate(-276.46859 -186.74951)" opacity="0.1"/><path d="M333.46534,660.3374a7.00787,7.00787,0,0,0,6.88769,6.88769H638.71a7.00787,7.00787,0,0,0,6.88769-6.88769V317.61963a7.00787,7.00787,0,0,0-6.88769-6.88769H340.35291a7.00787,7.00787,0,0,0-6.88769,6.88769Z" transform="translate(-276.46859 -186.74951)" fill="#fff"/><rect x="380.55676" y="380.10547" width="166" height="166" fill="#e6e6e6"/><path d="M494.02535,380.10547v166h-166v-166Zm-6.5,159.5h153v-153h-153Z" transform="translate(-276.46859 -186.74951)" opacity="0.1"/><path d="M369.02535,531.60547a12.5,12.5,0,1,1,12.5-12.5A12.5,12.5,0,0,1,369.02535,531.60547Z" transform="translate(-276.46859 -186.74951)" fill="#3f3d56"/><path d="M369.02535,476.10547a12.5,12.5,0,1,1,12.5-12.5A12.5,12.5,0,0,1,369.02535,476.10547Z" transform="translate(-276.46859 -186.74951)" fill="#3f3d56"/><path d="M463.02535,531.60547a12.5,12.5,0,1,1,12.5-12.5A12.5,12.5,0,0,1,463.02535,531.60547Z" transform="translate(-276.46859 -186.74951)" fill="#3f3d56"/><path d="M463.02535,476.10547a12.5,12.5,0,1,1,12.5-12.5A12.5,12.5,0,0,1,463.02535,476.10547Z" transform="translate(-276.46859 -186.74951)" fill="#3f3d56"/><path d="M557.02535,531.60547a12.5,12.5,0,1,1,12.5-12.5A12.5,12.5,0,0,1,557.02535,531.60547Z" transform="translate(-276.46859 -186.74951)" fill="#3f3d56"/><path d="M557.02535,476.10547a12.5,12.5,0,1,1,12.5-12.5A12.5,12.5,0,0,1,557.02535,476.10547Z" transform="translate(-276.46859 -186.74951)" fill="#3f3d56"/><rect x="411.55676" y="411.10547" width="104" height="104" fill="#6c63ff"/><path d="M923.53141,690.75049a13.80769,13.80769,0,0,1-13.79321,13.79322H581.00841a13.80769,13.80769,0,0,1-13.79322-13.79322V290.08691a13.80769,13.80769,0,0,1,13.79322-13.79321h328.7229a13.80769,13.80769,0,0,1,13.79321,13.79321Z" transform="translate(-276.46859 -186.74951)" fill="#f2f2f2"/><path d="M923.53141,690.75049a13.80769,13.80769,0,0,1-13.79321,13.79322H581.00841a13.80769,0,0,1-13.79322-13.79322V290.08691a13.80769,13.80769,0,0,1,13.79322-13.79321h328.7229a13.80769,13.80769,0,0,1,13.79321,13.79321Z" transform="translate(-276.46859 -186.74951)" opacity="0.1"/><path d="M607.83122,660.3374a7.00787,7.00787,0,0,0,6.88769,6.88769H913.07589a7.00787,7.00787,0,0,0,6.88769-6.88769V317.61963a7.00787,7.00787,0,0,0-6.88769-6.88769H614.71879a7.00787,7.00787,0,0,0-6.88769,6.88769Z" transform="translate(-276.46859 -186.74951)" fill="#fff"/><rect x="655.55676" y="380.10547" width="166" height="166" fill="#e6e6e6"/><path d="M769.02535,380.10547v166h-166v-166Zm-6.5,159.5h153v-153h-153Z" transform="translate(-276.46859 -186.74951)" opacity="0.1"/><path d="M644.02535,531.60547a12.5,12.5,0,1,1,12.5-12.5A12.5,12.5,0,0,1,644.02535,531.60547Z" transform="translate(-276.46859 -186.74951)" fill="#3f3d56"/><path d="M644.02535,476.10547a12.5,12.5,0,1,1,12.5-12.5A12.5,12.5,0,0,1,644.02535,476.10547Z" transform="translate(-276.46859 -186.74951)" fill="#3f3d56"/><path d="M738.02535,531.60547a12.5,12.5,0,1,1,12.5-12.5A12.5,12.5,0,0,1,738.02535,531.60547Z" transform="translate(-276.46859 -186.74951)" fill="#3f3d56"/><path d="M738.02535,476.10547a12.5,12.5,0,1,1,12.5-12.5A12.5,12.5,0,0,1,738.02535,476.10547Z" transform="translate(-276.46859 -186.74951)" fill="#3f3d56"/><path d="M832.02535,531.60547a12.5,12.5,0,1,1,12.5-12.5A12.5,12.5,0,0,1,832.02535,531.60547Z" transform="translate(-276.46859 -186.74951)" fill="#3f3d56"/><path d="M832.02535,476.10547a12.5,12.5,0,1,1,12.5-12.5A12.5,12.5,0,0,1,832.02535,476.10547Z" transform="translate(-276.46859 -186.74951)" fill="#3f3d56"/><rect x="686.55676" y="411.10547" width="104" height="104" fill="#6c63ff"/><path d="M276.46859,213.25049a13.80769,13.80769,0,0,1,13.79322-13.79322H618.99159a13.80769,13.80769,0,0,1,13.79322,13.79322V613.91406a13.80769,13.80769,0,0,1-13.79322,13.79321H290.26181a13.80769,13.80769,0,0,1-13.79322-13.79321Z" transform="translate(-276.46859 -186.74951)" fill="#f2f2f2"/><path d="M276.46859,213.25049a13.80769,13.80769,0,0,1,13.79322-13.79322H618.99159a13.80769,13.80769,0,0,1,13.79322,13.79322V613.91406a13.80769,13.80769,0,0,1-13.79322,13.79321H290.26181a13.80769,13.80769,0,0,1-13.79322-13.79321Z" transform="translate(-276.46859 -186.74951)" opacity="0.1"/><path d="M290.16878,240.6626a7.00787,7.00787,0,0,0-6.88769,6.88769V557.38037a7.00787,7.00787,0,0,0,6.88769,6.88769H595.92121a7.00787,7.00787,0,0,0,6.88769-6.88769V247.55029a7.00787,7.00787,0,0,0-6.88769-6.88769Z" transform="translate(-276.46859 -186.74951)" fill="#fff"/><rect x="380.55676" y="135.10547" width="166" height="166" fill="#e6e6e6"/><path d="M494.02535,135.10547v166h-166v-166Zm-6.5,159.5h153v-153h-153Z" transform="translate(-276.46859 -186.74951)" opacity="0.1"/><path d="M369.02535,286.60547a12.5,12.5,0,1,1,12.5-12.5A12.5,12.5,0,0,1,369.02535,286.60547Z" transform="translate(-276.46859 -186.74951)" fill="#3f3d56"/><path d="M369.02535,231.10547a12.5,12.5,0,1,1,12.5-12.5A12.5,12.5,0,0,1,369.02535,231.10547Z" transform="translate(-276.46859 -186.74951)" fill="#3f3d56"/><path d="M463.02535,286.60547a12.5,12.5,0,1,1,12.5-12.5A12.5,12.5,0,0,1,463.02535,286.60547Z" transform="translate(-276.46859 -186.74951)" fill="#3f3d56"/><path d="M463.02535,231.10547a12.5,12.5,0,1,1,12.5-12.5A12.5,12.5,0,0,1,463.02535,231.10547Z" transform="translate(-276.46859 -186.74951)" fill="#3f3d56"/><path d="M557.02535,286.60547a12.5,12.5,0,1,1,12.5-12.5A12.5,12.5,0,0,1,557.02535,286.60547Z" transform="translate(-276.46859 -186.74951)" fill="#3f3d56"/><path d="M557.02535,231.10547a12.5,12.5,0,1,1,12.5-12.5A12.5,12.5,0,0,1,557.02535,231.10547Z" transform="translate(-276.46859 -186.74951)" fill="#3f3d56"/><rect x="411.55676" y="166.10547" width="104" height="104" fill="#6c63ff"/></svg>
